<svg width="248.000000" height="50.000000" viewBox="0 0 248 50" fill="none" xmlns="http://www.w3.org/2000/svg" xmlns:xlink="http://www.w3.org/1999/xlink">
	<desc>
			Created with Pixso.
	</desc>
	<defs>
		<clipPath id="clip101_12091">
			<rect id="LOGO" width="248.000000" height="50.000000" fill="white" fill-opacity="0"/>
		</clipPath>
	</defs>
	<rect id="LOGO" width="248.000000" height="50.000000" fill="#FFFFFF" fill-opacity="0"/>
	<g clip-path="url(#clip101_12091)">
		<path id="Vector" d="M4.2 38.75C1.46 34.78 -0.01 30.07 -0.01 25.25C-0.01 25.16 -0.01 25.07 -0.01 24.99L-0.01 24.97C-0.01 21.69 0.64 18.44 1.91 15.42C3.18 12.38 5.04 9.63 7.38 7.32C12.14 2.63 18.57 0 25.26 0C31.96 -0.01 38.38 2.61 43.15 7.29C45.46 9.56 47.31 12.25 48.58 15.22C49.9 18.28 50.58 21.57 50.58 24.89L50.58 24.93C50.58 25.01 50.58 25.09 50.58 25.17C50.58 30.01 49.1 34.74 46.34 38.72L45.76 38.31C48.44 34.44 49.87 29.86 49.87 25.17C49.87 25.09 49.87 25.01 49.87 24.93C49.87 11.58 38.82 0.72 25.25 0.72C11.67 0.72 0.7 11.6 0.7 24.99C0.7 25.07 0.7 25.16 0.7 25.24C0.7 29.91 2.12 34.48 4.78 38.33L4.2 38.75ZM45.22 37.99L44.63 37.52C47.33 32.95 48.08 31.25 48.49 25.37C48.52 25 48.53 24.62 48.53 24.25C48.53 19.29 46.36 13.98 42.6 9.82C38.09 4.84 32.02 2.07 25.51 2.02C22.44 1.97 19.4 2.52 16.55 3.66C13.7 4.8 11.11 6.49 8.93 8.64C6.75 10.79 5.03 13.35 3.86 16.18C2.72 18.94 2.13 21.9 2.13 24.88C2.13 24.95 2.13 25.02 2.13 25.09C2.13 30.34 3.48 33.53 5.91 37.54L5.32 37.97C2.87 33.94 1.43 30.48 1.43 25.09Q1.43 25 1.43 24.91L1.43 24.91C1.43 18.75 3.84 12.83 8.16 8.41C10.37 6.16 13.01 4.38 15.93 3.17C18.96 1.91 22.22 1.28 25.51 1.31C28.95 1.33 32.34 2.1 35.44 3.58C41.14 6.33 45.58 11.12 47.87 17.01C48.78 19.34 49.24 21.81 49.24 24.31C49.24 24.68 49.23 25.05 49.21 25.43C48.78 31.42 47.96 33.36 45.22 37.99ZM25.6 41.18C20.91 41.18 18.47 39.42 16.5 37.99C15.24 37.08 14.16 36.3 12.8 36.24C11.5 36.18 9.17 36.94 5.49 40.91L4.95 40.43C8.02 37.14 10.74 35.45 12.83 35.55C14.4 35.62 15.56 36.46 16.91 37.43L16.91 37.43C18.88 38.86 21.34 40.63 26.18 40.48C29.93 40.36 31.84 38.92 33.52 37.66C34.86 36.65 36.12 35.71 38.04 35.55C40.37 35.36 43.16 38.18 45.41 40.45L45.49 40.53L44.98 41.01L44.9 40.93C42.76 38.76 40.09 36.07 38.09 36.24C36.38 36.38 35.26 37.22 33.96 38.2C32.19 39.53 30.18 41.04 26.21 41.17L25.6 41.18ZM25.27 43.65C20.78 43.65 17.74 41.71 15.48 40.27C14.29 39.53 13.36 38.93 12.66 38.92L12.61 38.92C11.07 38.92 9.14 40.75 6.97 42.96L6.48 42.43C8.79 40.08 10.84 38.14 12.67 38.18C13.57 38.2 14.57 38.84 15.84 39.65C18.16 41.12 21.34 43.14 26.07 42.89C29.75 42.7 32.32 41.05 34.38 39.72C35.82 38.79 36.96 38.07 38.03 38.16C39.9 38.33 41.67 40.1 43.23 41.67C43.5 41.94 43.74 42.18 43.99 42.42L43.51 42.97C43.26 42.73 43.01 42.47 42.74 42.21C41.26 40.73 39.59 39.04 37.97 38.91C37.14 38.84 36.08 39.51 34.75 40.37C32.73 41.67 29.96 43.44 26.1 43.65C25.91 43.64 25.73 43.64 25.54 43.65C25.45 43.65 25.36 43.65 25.27 43.65ZM24.9 45.84C20.21 45.84 17.23 43.92 15.22 42.61C14.2 41.94 13.39 41.42 12.77 41.41C11.46 41.38 10.78 42.11 8.96 44.07L8.96 44.08L8.62 44.44L8.11 43.95L8.45 43.58C10.31 41.57 11.16 40.65 12.79 40.68C13.6 40.7 14.48 41.27 15.6 41.99C17.76 43.39 20.73 45.31 25.62 45.1C30.62 44.88 33.47 43.03 35.36 41.8C36.39 41.13 37.14 40.65 37.86 40.65C39.35 40.65 40.43 41.81 41.69 43.14C41.91 43.38 42.15 43.62 42.38 43.87L41.89 44.38C41.65 44.13 41.42 43.88 41.19 43.64C40.04 42.42 39.06 41.37 37.87 41.37C37.35 41.37 36.64 41.83 35.75 42.41C33.8 43.68 30.84 45.6 25.66 45.82C25.4 45.83 25.15 45.84 24.9 45.84ZM25.2 47.96C19.78 47.96 16.79 46.01 14.91 44.79C14.09 44.26 13.74 43.85 12.9 43.8C12.12 43.75 10.49 45.63 10.4 45.74L9.87 45.29C9.96 45.19 11.5 43.08 12.85 43.07C14.02 43.07 14.33 43.53 15.29 44.17L15.34 44.21C17.31 45.48 20.14 47.32 25.49 47.25C30.88 47.18 33.51 45.42 35.25 44.25L35.25 44.25C36.2 43.62 36.96 43.11 37.77 43.15C39 43.22 40.07 44.31 40.67 45.31L40.07 45.69C39.44 44.63 38.52 43.92 37.74 43.87C37.15 43.84 36.51 44.26 35.64 44.85C33.83 46.06 31.09 47.89 25.5 47.96L25.2 47.96ZM24.99 50.01C24.02 50.02 23.05 49.96 22.08 49.85C18.79 49.45 15.34 48.14 11.83 45.98L12.2 45.34C15.62 47.45 18.97 48.72 22.17 49.11C24.43 49.35 26.71 49.31 28.96 49.01C33.04 48.18 34.89 47.54 38.19 45.4L38.58 46.09C35.01 48.39 32.98 48.94 29.1 49.72C27.74 49.92 26.37 50.02 24.99 50.01Z" fill="#1FA4B5" fill-opacity="1.000000" fill-rule="evenodd"/>
		<path id="Vector" d="M33.41 16.38L28.18 16.38L28.18 16.38L24.05 16.38L24.05 17.21L26.01 17.21L23 28.96L19.54 16.52L18.44 16.52L15 28.96L11.99 17.22L14.34 17.22L14.34 16.4L8.38 16.4L8.38 17.22L11 17.22L14.41 30.36L15.54 30.36L19.01 17.88L22.45 30.36L23.58 30.36L26.99 17.21L29.27 17.21L29.27 17.2L29.96 17.2L29.96 29.69L27.18 29.69L27.18 30.52L33.14 30.52L33.14 29.69L30.89 29.69L30.89 23.76L38.06 23.76L38.06 29.69L35.77 29.69L35.77 30.52L41.73 30.52L41.73 29.69L38.99 29.69L38.99 17.2L41.71 17.2L41.71 16.38L35.75 16.38L35.75 17.2L38.06 17.2L38.06 22.77L30.89 22.77L30.89 17.2L33.41 17.2L33.41 16.38Z" fill="#1FA4B5" fill-opacity="1.000000" fill-rule="evenodd"/>
		<path id="Vector" d="M33.61 17.4L33.61 16.18L27.98 16.18L27.98 16.18L23.85 16.18L23.85 17.41L25.75 17.41L22.99 28.18L19.7 16.32L18.29 16.32L15.01 28.18L12.25 17.42L14.54 17.42L14.54 16.2L8.18 16.2L8.18 17.42L10.85 17.42L14.26 30.56L15.69 30.56L19.01 18.63L22.3 30.56L23.74 30.56L27.15 17.41L29.47 17.41L29.47 17.4L29.76 17.4L29.76 29.49L26.98 29.49L26.98 30.72L33.34 30.72L33.34 29.49L31.09 29.49L31.09 23.96L37.86 23.96L37.86 29.49L35.57 29.49L35.57 30.72L41.93 30.72L41.93 29.49L39.19 29.49L39.19 17.4L41.91 17.4L41.91 16.18L35.55 16.18L35.55 17.4L37.86 17.4L37.86 22.57L31.09 22.57L31.09 17.4L33.61 17.4ZM30.89 17.4L30.89 17.2L33.41 17.2L33.41 16.38L28.18 16.38L28.18 16.38L24.05 16.38L24.05 17.21L26.01 17.21L25.95 17.41L23.1 28.57L23 28.96L22.89 28.57L19.54 16.52L18.44 16.52L15.11 28.57L15 28.96L14.9 28.57L12.04 17.42L11.99 17.22L14.34 17.22L14.34 16.4L8.38 16.4L8.38 17.22L11 17.22L11.05 17.42L14.41 30.36L15.54 30.36L18.91 18.26L19.01 17.88L19.12 18.26L22.45 30.36L23.58 30.36L26.94 17.41L26.99 17.21L29.27 17.21L29.27 17.2L29.96 17.2L29.96 29.69L27.18 29.69L27.18 30.52L33.14 30.52L33.14 29.69L30.89 29.69L30.89 23.76L38.06 23.76L38.06 29.69L35.77 29.69L35.77 30.52L41.73 30.52L41.73 29.69L38.99 29.69L38.99 17.2L41.71 17.2L41.71 16.38L35.75 16.38L35.75 17.2L38.06 17.2L38.06 22.77L30.89 22.77L30.89 17.4Z" fill="#1FA4B5" fill-opacity="1.000000" fill-rule="evenodd"/>
		<path id="Vector" d="M100.8 18L96.81 18L96.81 18.82L98.38 18.82L103.31 32L104.42 32L109.35 18.83L110.86 18.83L110.86 18L106.87 18L106.87 18.83L108.22 18.83L103.87 30.63L99.52 18.82L100.8 18.82L100.8 18ZM138.04 18L132.16 18L132.16 18.82L134.42 18.82L134.42 31.31L131.89 31.31L131.89 32.14L137.77 32.14L137.77 31.31L135.47 31.31L135.47 25.49L143.55 25.49L143.55 31.31L141.16 31.31L141.16 32.14L147.05 32.14L147.05 31.31L144.61 31.31L144.61 18.82L147.05 18.82L147.05 18L141.16 18L141.16 18.82L143.55 18.82L143.55 24.53L135.47 24.53L135.47 18.82L138.04 18.82L138.04 18ZM231.46 18L227.47 18L227.47 18.82L228.98 18.82L228.98 30.05L220.77 18.13L219.85 18.13L219.85 31.31L218.51 31.31L218.51 32.14L222.5 32.14L222.5 31.31L220.9 31.31L220.9 20.08L229.06 31.99L230.03 31.99L230.03 18.82L231.46 18.82L231.46 18ZM238.35 18L234.36 18L234.36 18.82L235.9 18.82L240.67 26.37L240.67 31.31L239.2 31.31L239.2 32.14L243.19 32.14L243.19 31.31L241.72 31.31L241.72 26.37L246.5 18.82L248 18.82L248 18L244.01 18L244.01 18.82L245.32 18.82L241.21 25.38L237.09 18.82L238.35 18.82L238.35 18ZM67.79 18.01L61.91 18.01L61.91 18.84L64.1 18.84L67.93 32L69.2 32L73.12 19.52L77.01 32L78.28 32L82.08 18.84L84.39 18.84L84.39 18.01L78.5 18.01L78.5 18.84L80.98 18.84L77.59 30.6L73.7 18.16L72.45 18.16L68.59 30.6L65.2 18.84L67.79 18.84L67.79 18.01ZM208.5 18.14C204.48 18.14 201.33 21.22 201.33 25.06C201.33 28.9 204.48 31.99 208.5 31.99C212.51 31.99 215.66 28.9 215.66 25.06C215.66 21.23 212.51 18.14 208.5 18.14ZM169.52 26.31L173.93 26.31L176.85 31.31L175.65 31.31L175.65 32.14L179.63 32.14L179.63 31.31L178.06 31.31L175 26.17C175.96 25.92 176.8 25.33 177.36 24.5C177.81 23.83 178.05 23.03 178.05 22.23C178.05 22.05 178.04 21.87 178.02 21.7C177.89 20.71 177.41 19.81 176.66 19.16C175.91 18.5 174.94 18.14 173.95 18.15L168.47 18.15L168.47 31.31L167.07 31.31L167.07 32.14L171.06 32.14L171.06 31.31L169.52 31.31L169.52 26.31ZM153.34 28.47L160.3 28.47L161.4 31.31L160.07 31.31L160.07 32.14L164.06 32.14L164.06 31.31L162.5 31.31L157.38 18.15L156.28 18.15L151.14 31.31L149.41 31.31L149.41 32.14L153.4 32.14L153.4 31.31L152.24 31.31L153.34 28.47ZM197.18 31.31L197.18 18.15L195.85 18.15L190.89 26.33L185.93 18.15L184.62 18.15L184.62 31.31L183.07 31.31L183.07 32.14L187.06 32.14L187.06 31.31L185.67 31.31L185.67 19.69L190.81 28.2L190.99 28.2L196.13 19.69L196.13 31.31L194.71 31.31L194.71 32.14L198.7 32.14L198.7 31.31L197.18 31.31ZM87.1 28.48L94.08 28.48L95.17 31.31L93.64 31.31L93.64 32.14L97.63 32.14L97.63 31.31L96.27 31.31L91.15 18.16L90.05 18.16L84.92 31.31L83.52 31.31L83.52 32.14L87.51 32.14L87.51 31.31L86.02 31.31L87.1 28.48ZM121.89 32L121.89 31.01L114.94 31.01L114.94 25.51L121.28 25.51L121.28 24.52L114.94 24.52L114.94 19.15L121.79 19.15L121.79 18.16L113.89 18.16L113.89 32L121.89 32ZM208.49 19.12C211.93 19.12 214.61 21.77 214.61 25.06C214.61 28.36 211.93 31.01 208.49 31.01C205.06 31.01 202.38 28.36 202.38 25.06C202.38 21.77 205.06 19.12 208.49 19.12ZM173.95 25.32L169.52 25.32L169.52 19.13L173.95 19.13C174.77 19.13 175.56 19.46 176.14 20.04C176.73 20.62 177.05 21.41 177.05 22.23C177.05 23.05 176.73 23.84 176.14 24.42C175.56 25 174.77 25.32 173.95 25.32ZM156.84 19.43L159.92 27.47L153.73 27.47L156.84 19.43ZM90.61 19.44L93.71 27.49L87.51 27.49L90.61 19.44Z" fill="#1FA4B5" fill-opacity="1.000000" fill-rule="evenodd"/>
		<path id="Vector" d="M101 19.02L101 17.79L96.61 17.79L96.61 19.02L98.24 19.02L103.18 32.2L104.56 32.2L109.49 19.03L111.06 19.03L111.06 17.8L106.67 17.8L106.67 19.03L107.94 19.03L103.87 30.06L99.81 19.02L101 19.02ZM99.6 19.02L99.52 18.82L100.8 18.82L100.8 18L96.81 18L96.81 18.82L98.38 18.82L98.45 19.02L103.31 32L104.42 32L109.28 19.03L109.35 18.83L110.86 18.83L110.86 18L106.87 18L106.87 18.83L108.22 18.83L108.15 19.03L103.97 30.35L103.87 30.63L103.76 30.34L99.6 19.02ZM138.24 19.02L138.24 17.79L131.96 17.79L131.96 19.02L134.22 19.02L134.22 31.11L131.69 31.11L131.69 32.34L137.97 32.34L137.97 31.11L135.67 31.11L135.67 25.69L143.35 25.69L143.35 31.11L140.96 31.11L140.96 32.34L147.25 32.34L147.25 31.11L144.81 31.11L144.81 19.02L147.25 19.02L147.25 17.79L140.96 17.79L140.96 19.02L143.35 19.02L143.35 24.33L135.67 24.33L135.67 19.02L138.24 19.02ZM135.47 19.02L135.47 18.82L138.04 18.82L138.04 18L132.16 18L132.16 18.82L134.42 18.82L134.42 31.31L131.89 31.31L131.89 32.14L137.77 32.14L137.77 31.31L135.47 31.31L135.47 25.49L143.55 25.49L143.55 31.31L141.16 31.31L141.16 32.14L147.05 32.14L147.05 31.31L144.61 31.31L144.61 18.82L147.05 18.82L147.05 18L141.16 18L141.16 18.82L143.55 18.82L143.55 24.53L135.47 24.53L135.47 19.02ZM231.66 19.02L231.66 17.79L227.27 17.79L227.27 19.02L228.78 19.02L228.78 29.41L220.87 17.93L219.65 17.93L219.65 31.11L218.31 31.11L218.31 32.34L222.7 32.34L222.7 31.11L221.1 31.11L221.1 20.73L228.96 32.19L230.23 32.19L230.23 19.02L231.66 19.02ZM230.03 19.02L230.03 18.82L231.46 18.82L231.46 18L227.47 18L227.47 18.82L228.98 18.82L228.98 30.05L228.78 29.76L220.77 18.13L219.85 18.13L219.85 31.31L218.51 31.31L218.51 32.14L222.5 32.14L222.5 31.31L220.9 31.31L220.9 20.08L229.06 31.99L230.03 31.99L230.03 19.02ZM238.55 19.02L238.55 17.79L234.16 17.79L234.16 19.02L235.79 19.02L240.47 26.43L240.47 31.11L239 31.11L239 32.34L243.39 32.34L243.39 31.11L241.92 31.11L241.92 26.43L246.61 19.02L248.2 19.02L248.2 17.79L243.81 17.79L243.81 19.02L244.96 19.02L241.21 25L237.45 19.02L238.55 19.02ZM237.21 19.02L237.09 18.82L238.35 18.82L238.35 18L234.36 18L234.36 18.82L235.9 18.82L236.02 19.02L240.67 26.37L240.67 31.31L239.2 31.31L239.2 32.14L243.19 32.14L243.19 31.31L241.72 31.31L241.72 26.37L246.38 19.02L246.5 18.82L248 18.82L248 18L244.01 18L244.01 18.82L245.32 18.82L245.19 19.02L241.33 25.19L241.21 25.38L241.09 25.19L237.21 19.02ZM67.99 19.04L67.99 17.81L61.71 17.81L61.71 19.04L63.95 19.04L67.78 32.2L69.35 32.2L73.12 20.19L76.86 32.2L78.43 32.2L82.23 19.04L84.59 19.04L84.59 17.81L78.3 17.81L78.3 19.04L80.71 19.04L77.58 29.9L73.84 17.96L72.3 17.96L68.59 29.9L65.46 19.04L67.99 19.04ZM65.26 19.04L65.2 18.84L67.79 18.84L67.79 18.01L61.91 18.01L61.91 18.84L64.1 18.84L64.16 19.04L67.93 32L69.2 32L73.02 19.86L73.12 19.52L73.23 19.86L77.01 32L78.28 32L82.02 19.04L82.08 18.84L84.39 18.84L84.39 18.01L78.5 18.01L78.5 18.84L80.98 18.84L80.92 19.04L77.69 30.25L77.59 30.6L77.48 30.25L73.7 18.16L72.45 18.16L68.7 30.25L68.59 30.6L68.49 30.25L65.26 19.04ZM210.44 18.19Q209.5 17.94 208.5 17.94Q207.48 17.94 206.52 18.19Q206.06 18.32 205.61 18.5Q204.84 18.81 204.17 19.27Q203.69 19.61 203.27 20.02Q202.69 20.58 202.26 21.24Q201.94 21.73 201.7 22.28Q201.46 22.84 201.32 23.43Q201.13 24.22 201.13 25.06Q201.13 25.88 201.31 26.66Q201.45 27.27 201.7 27.84Q201.93 28.38 202.25 28.87Q202.68 29.54 203.27 30.11Q203.7 30.52 204.19 30.86Q204.85 31.32 205.61 31.63Q206.07 31.82 206.55 31.94Q207.49 32.19 208.5 32.19Q209.5 32.19 210.44 31.94Q210.92 31.82 211.38 31.63Q212.14 31.32 212.8 30.86Q213.29 30.53 213.72 30.11Q214.31 29.54 214.74 28.87Q215.06 28.38 215.29 27.84Q215.54 27.26 215.68 26.65Q215.86 25.88 215.86 25.06Q215.86 24.24 215.68 23.46Q215.54 22.86 215.29 22.29Q215.06 21.74 214.74 21.25Q214.31 20.59 213.72 20.02Q213.29 19.6 212.8 19.27Q212.14 18.81 211.38 18.5Q210.92 18.31 210.44 18.19ZM169.72 26.31L169.52 26.31L169.52 31.31L171.06 31.31L171.06 32.14L167.07 32.14L167.07 31.31L168.47 31.31L168.47 18.15L173.95 18.15C174.94 18.14 175.91 18.5 176.66 19.16C177.41 19.81 177.89 20.71 178.02 21.7C178.04 21.87 178.05 22.05 178.05 22.23C178.05 23.03 177.81 23.83 177.36 24.5C176.84 25.27 176.08 25.84 175.2 26.11C175.13 26.14 175.07 26.15 175 26.17L175.11 26.35L177.94 31.11L178.06 31.31L179.63 31.31L179.63 32.14L175.65 32.14L175.65 31.31L176.85 31.31L176.73 31.11L173.93 26.31L169.72 26.31ZM173.82 26.51L169.72 26.51L169.72 31.11L171.26 31.11L171.26 32.34L166.87 32.34L166.87 31.11L168.27 31.11L168.27 17.95L173.95 17.95Q174.34 17.95 174.72 18.01Q175.1 18.08 175.46 18.22Q175.84 18.36 176.17 18.56Q176.5 18.75 176.79 19.01Q177.09 19.27 177.33 19.58Q177.57 19.87 177.75 20.21Q177.93 20.56 178.05 20.93Q178.17 21.29 178.22 21.67Q178.27 22.06 178.25 22.44Q178.23 22.82 178.14 23.21Q178.05 23.58 177.9 23.93Q177.75 24.29 177.52 24.61Q177.31 24.93 177.05 25.2Q176.77 25.48 176.45 25.71Q176.13 25.94 175.79 26.1Q175.55 26.21 175.3 26.29L178.17 31.11L179.83 31.11L179.83 32.34L175.45 32.34L175.45 31.11L176.5 31.11L173.82 26.51ZM153.47 28.67L152.53 31.11L153.6 31.11L153.6 32.34L149.21 32.34L149.21 31.11L151.01 31.11L156.14 17.95L157.52 17.95L162.64 31.11L164.26 31.11L164.26 32.34L159.87 32.34L159.87 31.11L161.11 31.11L160.17 28.67L153.47 28.67ZM160.3 28.47L153.34 28.47L152.32 31.11L152.24 31.31L153.4 31.31L153.4 32.14L149.41 32.14L149.41 31.31L151.14 31.31L151.22 31.11L156.28 18.15L157.38 18.15L162.42 31.11L162.5 31.31L164.06 31.31L164.06 32.14L160.07 32.14L160.07 31.31L161.4 31.31L161.32 31.11L160.3 28.47ZM195.93 32.14L194.71 32.14L194.71 31.31L196.13 31.31L196.13 19.69L195.93 20.02L190.99 28.2L190.81 28.2L185.87 20.02L185.67 19.69L185.67 31.31L187.06 31.31L187.06 32.14L183.07 32.14L183.07 31.31L184.62 31.31L184.62 18.15L185.93 18.15L190.77 26.14L190.89 26.33L191.01 26.14L195.85 18.15L197.18 18.15L197.18 31.31L198.7 31.31L198.7 32.14L195.93 32.14ZM197.38 31.11L198.9 31.11L198.9 32.34L194.51 32.34L194.51 31.11L195.93 31.11L195.93 20.4L191.1 28.4L190.7 28.4L185.87 20.4L185.87 31.11L187.26 31.11L187.26 32.34L182.87 32.34L182.87 31.11L184.42 31.11L184.42 17.95L186.04 17.95L190.89 25.95L195.74 17.95L197.38 17.95L197.38 31.11ZM87.24 28.68L86.31 31.11L87.71 31.11L87.71 32.34L83.32 32.34L83.32 31.11L84.78 31.11L89.91 17.96L91.29 17.96L96.4 31.11L97.83 31.11L97.83 32.34L93.44 32.34L93.44 31.11L94.88 31.11L93.94 28.68L87.24 28.68ZM94.08 28.48L87.1 28.48L86.09 31.11L86.02 31.31L87.51 31.31L87.51 32.14L83.52 32.14L83.52 31.31L84.92 31.31L85 31.11L90.05 18.16L91.15 18.16L96.19 31.11L96.27 31.31L97.63 31.31L97.63 32.14L93.64 32.14L93.64 31.31L95.17 31.31L95.09 31.11L94.08 28.48ZM113.69 32.2L122.09 32.2L122.09 30.81L115.14 30.81L115.14 25.71L121.48 25.71L121.48 24.32L115.14 24.32L115.14 19.35L121.99 19.35L121.99 17.96L113.69 17.96L113.69 32.2ZM114.94 19.35L114.94 19.15L121.79 19.15L121.79 18.16L113.89 18.16L113.89 32L121.89 32L121.89 31.01L114.94 31.01L114.94 25.51L121.28 25.51L121.28 24.52L114.94 24.52L114.94 19.35ZM201.33 25.06C201.33 21.22 204.48 18.14 208.5 18.14C212.51 18.14 215.66 21.23 215.66 25.06C215.66 28.9 212.51 31.99 208.5 31.99C204.48 31.99 201.33 28.9 201.33 25.06ZM214.61 25.06C214.61 21.77 211.93 19.12 208.49 19.12C205.06 19.12 202.38 21.77 202.38 25.06C202.38 28.36 205.06 31.01 208.49 31.01C211.93 31.01 214.61 28.36 214.61 25.06ZM174.52 25.07Q174.24 25.12 173.95 25.12L169.72 25.12L169.72 19.33L173.95 19.33Q174.24 19.33 174.52 19.39Q174.8 19.45 175.06 19.55Q175.33 19.67 175.57 19.83Q175.8 19.98 176 20.18Q176.21 20.39 176.37 20.63Q176.52 20.86 176.63 21.12Q176.74 21.39 176.8 21.67Q176.85 21.94 176.85 22.23Q176.85 22.51 176.8 22.79Q176.74 23.07 176.63 23.34Q176.52 23.6 176.37 23.83Q176.21 24.07 176 24.28Q175.8 24.48 175.57 24.63Q175.33 24.79 175.06 24.9Q174.8 25.01 174.52 25.07ZM169.52 19.33L169.52 19.13L173.95 19.13C174.77 19.13 175.56 19.46 176.14 20.04C176.73 20.62 177.05 21.41 177.05 22.23C177.05 23.05 176.73 23.84 176.14 24.42C175.56 25 174.77 25.32 173.95 25.32L169.52 25.32L169.52 19.33ZM206.86 19.54Q207.65 19.32 208.49 19.32Q209.34 19.32 210.12 19.53Q210.48 19.63 210.82 19.77Q211.43 20.02 211.96 20.39Q212.35 20.66 212.7 21Q213.15 21.44 213.49 21.96Q213.75 22.37 213.95 22.82Q214.14 23.26 214.25 23.72Q214.41 24.37 214.41 25.06Q214.41 25.76 214.25 26.42Q214.14 26.87 213.95 27.3Q213.75 27.77 213.48 28.18Q213.15 28.69 212.7 29.13Q212.35 29.47 211.96 29.74Q211.43 30.11 210.82 30.36Q210.48 30.5 210.12 30.59Q209.34 30.81 208.49 30.81Q207.65 30.81 206.86 30.59Q206.51 30.5 206.16 30.36Q205.56 30.11 205.03 29.74Q204.64 29.47 204.29 29.13Q203.84 28.69 203.5 28.18Q203.23 27.77 203.03 27.3Q202.85 26.87 202.74 26.42Q202.58 25.76 202.58 25.06Q202.58 24.37 202.74 23.71Q202.85 23.26 203.03 22.82Q203.23 22.36 203.5 21.95Q203.84 21.44 204.29 21Q204.64 20.66 205.03 20.39Q205.56 20.02 206.16 19.77Q206.51 19.63 206.86 19.54ZM156.84 19.43L156.95 19.71L159.85 27.27L159.92 27.47L153.73 27.47L153.81 27.27L156.74 19.71L156.84 19.43ZM156.84 19.99L154.03 27.27L159.63 27.27L156.84 19.99ZM90.61 19.44L90.72 19.72L93.63 27.29L93.71 27.49L87.51 27.49L87.59 27.29L90.5 19.72L90.61 19.44ZM90.61 20L87.8 27.29L93.41 27.29L90.61 20Z" fill="#1FA4B5" fill-opacity="1.000000" fill-rule="evenodd"/>
	</g>
</svg>
